PathFileType	4	(X/Y/Z)	ScaleMarkers.trc																																																																																								
DataRate	CameraRate	NumFrames	NumMarkers	Units	OrigDataRate	OrigDataStartFrame	OrigNumFrames																																																																																				
100	100	9	30	mm	100	1 100																																																																																					
Frame#	Time	Thumb_MCP_L			Thumb_PIP_L			Thumb_DIP_L			Thumb_TIP_L			Index_MCP_L			Index_PIP_L			Index_DIP_L			Index_TIP_L			Middle_MCP_L			Middle_PIP_L			Middle_DIP_L			Middle_TIP_L			Ring_MCP_L			Ring_PIP_L			Ring_DIP_L			Ring_TIP_L			Little_MCP_L			Little_PIP_L			Little_DIP_L			Little_TIP_L			Wrist_L			Elbow_L			Point_W1_L			Point_E1_L			Shoulder_L			Point_F1_L			Point_F2_L			Point_F3_L			Point_F4_L			Point_F5_L		
		X1	Y1	Z1	X2	Y2	Z2	X3	Y3	Z3	X4	Y4	Z4	X5	Y5	Z5	X6	Y6	Z6	X7	Y7	Z7	X8	Y8	Z8	X9	Y9	Z9	X10	Y10	Z10	X11	Y11	Z11	X12	Y12	Z12	X13	Y13	Z13	X14	Y14	Z14	X15	Y15	Z15	X16	Y16	Z16	X17	Y17	Z17	X18	Y18	Z18	X19	Y19	Z19	X20	Y20	Z20	X21	Y21	Z21	X22	Y22	Z22	X23	Y23	Z23	X24	Y24	Z24	X25	Y25	Z25	X26	Y26	Z26	X27	Y27	Z27	X28	Y28	Z28	X29	Y29	Z29	X30	Y30	Z30
1	13.74348617	193.2642602	-110.7083753	-164.6700143	199.6298677	-102.6814169	-152.3784554	208.513271	-112.9734643	-149.0355779	216.651399	-125.5303762	-147.9871539	198.2069602	-112.9594433	-183.5636379	220.4181317	-121.2293851	-165.1704538	211.9009581	-137.7961389	-157.893743	204.0876166	-152.6767829	-151.4498334	193.9458241	-116.6439971	-184.199474	221.6050527	-131.4139927	-177.810674	211.7056446	-147.5258654	-164.7178291	200.4282767	-160.0719983	-153.9769129	190.7983958	-121.2415784	-189.8666988	220.8365925	-131.4950118	-185.8126753	211.1864399	-147.0207353	-173.5731527	201.470665	-160.6830159	-162.6669656	188.3574711	-121.5008364	-190.0389058	210.5047368	-126.7374966	-193.3239184	210.6890894	-138.5884684	-187.9838408	195.2266814	-146.5843947	-180.3671537	158.4951308	-101.2290785	-162.7805683	-37.88905358	-127.5888619	-135.5927326	168.6955557	-84.39762668	-159.2210804	-34.11567342	-142.4080765	-122.7028484	0	0	0	206.9849246	-102.8375395	-176.9113595	206.429666	-123.6684108	-198.3147934	191.4818946	-128.2276543	-200.3162853	189.0087637	-132.8763771	-206.0355117	183.7980616	-129.5861483	-207.7585809
2	13.75348617	193.2877726	-110.9738433	-165.0697419	199.8559629	-102.926679	-152.9000209	208.8251412	-113.050556	-149.2861921	216.8947	-125.6467916	-148.1829153	198.1979503	-113.2219855	-183.9711982	220.3150692	-121.2029831	-165.3391871	211.9022057	-137.7893206	-157.978763	204.0929308	-152.6679534	-151.5262964	193.938493	-116.9095191	-184.6000824	221.6058268	-131.5009394	-177.8423143	211.7135115	-147.5909874	-164.7177948	200.4008208	-160.1209008	-153.9907274	190.7849345	-121.5094083	-190.2621072	220.8702657	-131.5128681	-185.9139845	211.1662763	-147.0137762	-173.6857778	201.4333114	-160.6758041	-162.7942603	188.3439214	-121.7703699	-190.4303901	210.5872836	-126.822199	-193.3906823	210.7760656	-138.5645518	-187.8210832	195.3053303	-146.5894342	-180.250847	158.514739	-101.5186948	-163.1248147	-37.82017542	-127.7478556	-135.4622404	168.7083864	-84.68002897	-159.582221	-34.02555824	-142.5517504	-122.5611493	0	0	0	206.9474471	-103.3123909	-177.5079766	206.6224198	-123.9775843	-198.5781676	191.6849696	-128.6199066	-200.6557033	189.2153934	-133.2420298	-206.3828317	184.0848076	-130.1958234	-208.0616163
3	13.76348617	193.2699916	-110.9469668	-165.0549539	199.7751694	-102.8983143	-152.851957	208.7437912	-113.0250371	-149.2551581	216.8223965	-125.6166994	-148.1611279	198.1843207	-113.197309	-183.9552846	220.3164155	-121.1839885	-165.3332433	211.8941274	-137.7750641	-157.9769179	204.0854494	-152.6531188	-151.5245473	193.9258143	-116.885172	-184.5847755	221.5946066	-131.4907989	-177.8356393	211.7107627	-147.588449	-164.7124398	200.3885443	-160.1165126	-153.9872547	190.7744846	-121.4859879	-190.2471264	220.851936	-131.5316815	-185.9002687	211.1540067	-147.032002	-173.6642708	201.4220246	-160.6938226	-162.7675042	188.333576	-121.747113	-190.4158778	210.5836752	-126.7971542	-193.3798837	210.8122747	-138.5331305	-187.8151219	195.3364706	-146.5656707	-180.2534277	158.4987819	-101.4935756	-163.1174691	-37.82529394	-127.790671	-135.4177398	168.6940663	-84.6538539	-159.5740011	-34.02800044	-142.5904404	-122.5142015	0	0	0	206.9546585	-103.237731	-177.4213265	206.6024079	-123.9500856	-198.5676765	191.6615284	-128.5868486	-200.6429471	189.1942172	-133.2116041	-206.3699389	184.0806921	-130.1589924	-208.0504928
4	13.77348617	193.2422453	-110.9050273	-165.0196506	199.6490952	-102.8540524	-152.7655174	208.6168485	-112.9852159	-149.1863075	216.7095704	-125.5697419	-148.1111574	198.1718118	-113.1588026	-183.9171904	220.3204205	-121.1641874	-165.3169253	211.8815216	-137.7486781	-157.9715018	204.0737752	-152.6278531	-151.51944	193.9136789	-116.8471793	-184.5482007	221.577098	-131.474975	-177.8252232	211.7034926	-147.5815169	-164.7040835	200.3789474	-160.1047518	-153.9818357	190.7666906	-121.4494415	-190.2113773	220.8233333	-131.5476204	-185.8693211	211.1454721	-147.0604424	-173.6262986	201.4154357	-160.7219394	-162.7257526	188.3258998	-121.7108216	-190.3812939	210.5780446	-126.7430392	-193.3559183	210.8361333	-138.4956066	-187.8128077	195.3566955	-146.5201936	-180.2593981	158.4711537	-101.4543784	-163.1007957	-37.83801726	-127.8155462	-135.390511	168.6654809	-84.61300897	-159.5550041	-34.03484522	-142.6129189	-122.4856634	0	0	0	206.9659116	-103.1212279	-177.2861131	206.5711802	-123.9071753	-198.5401928	191.6249496	-128.5352633	-200.6119058	189.1611728	-133.1641262	-206.3388131	184.07427	-130.1015194	-208.0243894
5	13.78348617	193.2303032	-110.8920243	-164.9656919	199.5970176	-102.8384113	-152.694651	208.5656574	-112.9683472	-149.0942654	216.6633962	-125.5508885	-148.040217	198.1685947	-113.1475502	-183.8586887	220.3317604	-121.1266993	-165.2846372	211.8787652	-137.7048853	-157.9582666	204.071094	-152.5852702	-151.5072747	193.910681	-116.8363067	-184.4922113	221.5750646	-131.4685739	-177.8207657	211.6900808	-147.5677745	-164.7022562	200.3557344	-160.082434	-153.9819756	190.7661948	-121.4394295	-190.1567757	220.8163922	-131.5510755	-185.8279892	211.1430294	-147.0691087	-173.5973684	201.4084944	-160.7309841	-162.7083512	188.3254715	-121.7010059	-190.3285972	210.5791176	-126.6754099	-193.3237425	210.8423119	-138.4424551	-187.8046382	195.3616805	-146.4764566	-180.2676697	158.4512574	-101.443688	-163.077476	-37.85889118	-127.8196892	-135.3845572	168.6345286	-84.60118272	-159.5275711	-34.04941078	-142.6166683	-122.4793951	0	0	0	206.9691217	-103.0784376	-177.2276329	206.5610817	-123.8942471	-198.4904649	191.6106909	-128.5181543	-200.5628509	189.1500583	-133.1489898	-206.2903008	184.0752639	-130.0806694	-207.9856688
6	13.79348617	193.2341752	-111.0594906	-164.8213617	199.7145566	-102.9527091	-152.6482786	208.7409889	-112.9801335	-148.9208136	216.7879932	-125.598591	-147.884133	198.2231497	-113.3236438	-183.7001054	220.4708724	-120.9927481	-165.0920977	211.9665951	-137.5655266	-157.8144552	204.1482544	-152.448408	-151.3826036	193.9708565	-117.0175258	-184.3417926	221.7554882	-131.4945719	-177.8246405	211.6276834	-147.4889805	-164.7604744	200.2348743	-159.9695797	-154.0628606	190.8459326	-121.6282916	-190.0110123	220.993328	-131.4786398	-185.7477553	211.1549327	-146.950616	-173.5824188	201.4002689	-160.629367	-162.7299862	188.4059428	-121.8926655	-190.1888506	210.7147963	-126.5666577	-193.2626407	210.8037189	-138.3394248	-187.7499228	195.3227999	-146.4383252	-180.2857074	158.4414873	-101.6478046	-163.0283595	-37.9273328	-127.7172071	-135.4612633	168.5985238	-84.79153483	-159.4647344	-34.1505151	-142.5242148	-122.5581949	0	0	0	206.9051233	-103.3585825	-177.2301297	206.7037925	-124.0778222	-198.2721098	191.6617722	-128.6878255	-200.4186035	189.3002978	-133.3338745	-206.1531844	184.2244323	-130.2114926	-207.8903228
7	13.80348617	193.2478061	-111.038292	-164.8782227	199.8155032	-102.9315615	-152.7454849	208.8825935	-112.8883469	-148.9092629	216.8887946	-125.5308869	-147.8769864	198.2477095	-113.3030891	-183.7548535	220.4300476	-120.9549774	-165.0617635	211.9535304	-137.5379247	-157.7714878	204.1383533	-152.4252642	-151.3460532	193.9962583	-116.9974548	-184.3981864	221.7314902	-131.5473336	-177.846124	211.6620325	-147.550568	-164.7521714	200.2440016	-160.0024299	-154.0416517	190.8749437	-121.6088969	-190.0685615	220.9490032	-131.5437118	-185.5111863	211.159983	-147.0428537	-173.3519729	201.4152133	-160.7361937	-162.5129721	188.4350829	-121.8735367	-190.2473953	210.768265	-126.4380982	-193.3247747	210.8348861	-138.2071938	-187.8032285	195.3495447	-146.3206475	-180.360776	158.4527668	-101.6301343	-163.0996911	-37.90787653	-127.6973044	-135.4848555	168.6060358	-84.77258469	-159.5322743	-34.12739752	-142.5061759	-122.584904	0	0	0	206.8911116	-103.4170715	-177.3564331	206.7903214	-124.0601802	-198.2926951	191.6616044	-128.6767528	-200.4639333	189.4390525	-133.352297	-206.1955342	184.2957702	-130.2037482	-207.9505028
8	13.81348617	193.2979811	-111.0630057	-164.88731	199.7014349	-102.9059062	-152.7025804	208.6926245	-112.9894665	-149.0413825	216.733849	-125.6091748	-147.999176	198.2955238	-113.3234675	-183.7645941	220.4410133	-120.9783551	-165.030499	211.9262556	-137.5553054	-157.7697128	204.1166084	-152.4452328	-151.3435494	194.0442114	-117.0180103	-184.408503	221.7577846	-131.5421803	-177.7107884	211.7048161	-147.5600456	-164.6186502	200.2731668	-160.0135794	-153.9310423	190.9224732	-121.6284892	-190.0796781	221.0031847	-131.59233	-185.6133734	211.1276102	-147.0530749	-173.470913	201.3711054	-160.7388455	-162.629052	188.4826075	-121.8932716	-190.2584632	210.8083464	-126.5385898	-193.2495111	210.8581937	-138.2956958	-187.7052564	195.3746561	-146.4176646	-180.271958	158.502691	-101.6577901	-163.1055229	-37.85402458	-127.733317	-135.4673094	168.6555745	-84.80024915	-159.5350431	-34.07158735	-142.5387096	-122.5639452	0	0	0	206.9923567	-103.3514755	-177.2513587	206.8620669	-124.0832133	-198.2860084	191.7851266	-128.7263617	-200.4635097	189.4393383	-133.3541889	-206.2149996	184.37193	-130.2558293	-207.9549463
9	13.82348617	193.319394	-111.0649082	-164.9243814	199.8670577	-102.9161505	-152.8158487	208.8805113	-112.963247	-149.1012527	216.9103156	-125.5885392	-148.0331116	198.3130243	-113.3245713	-183.8028899	220.4191757	-120.9796435	-165.019388	211.8732542	-137.5527794	-157.7856982	204.0698778	-152.4460018	-151.3592937	194.0616881	-117.0191722	-184.4457528	221.7562266	-131.5827454	-177.7524767	211.691781	-147.5931836	-164.6603612	200.2411945	-160.0328055	-153.9744711	190.9388901	-121.6295009	-190.1161651	221.0384738	-131.6149014	-185.8239033	211.0659022	-147.0212547	-173.6928243	201.3029258	-160.6927254	-162.8402332	188.4989939	-121.8943233	-190.2943542	210.7948289	-126.6315012	-193.3571672	210.8275082	-138.3874409	-187.8047074	195.3470015	-146.4594421	-180.3087592	158.5241596	-101.6604157	-163.1336701	-37.81446996	-127.7949528	-135.4197691	168.6772072	-84.80281019	-159.56582	-34.02283626	-142.5943828	-122.5124307	0	0	0	206.9505682	-103.4555705	-177.4229692	206.9090087	-124.0859801	-198.3041149	191.7875859	-128.7221333	-200.504134	189.3586585	-133.321525	-206.2657384	184.2942321	-130.2512331	-207.9696143
